%TF.GenerationSoftware,KiCad,Pcbnew,(6.0.8-1)-1*%
%TF.CreationDate,2022-12-25T10:37:34-08:00*%
%TF.ProjectId,bowiten65-rp2040,626f7769-7465-46e3-9635-2d7270323034,rev?*%
%TF.SameCoordinates,Original*%
%TF.FileFunction,Legend,Top*%
%TF.FilePolarity,Positive*%
%FSLAX46Y46*%
G04 Gerber Fmt 4.6, Leading zero omitted, Abs format (unit mm)*
G04 Created by KiCad (PCBNEW (6.0.8-1)-1) date 2022-12-25 10:37:34*
%MOMM*%
%LPD*%
G01*
G04 APERTURE LIST*
%ADD10C,1.750000*%
%ADD11C,3.987800*%
%ADD12C,3.048000*%
%ADD13R,1.700000X1.700000*%
%ADD14O,1.700000X1.700000*%
G04 APERTURE END LIST*
%TO.C,G\u002A\u002A\u002A*%
G36*
X150861395Y-166959919D02*
G01*
X150858849Y-164645543D01*
X150854749Y-162453055D01*
X150849217Y-160405264D01*
X150842370Y-158524974D01*
X150834327Y-156834992D01*
X150825208Y-155358125D01*
X150815131Y-154117180D01*
X150804215Y-153134962D01*
X150792580Y-152434278D01*
X150780344Y-152037934D01*
X150771411Y-151953784D01*
X150599983Y-152051499D01*
X150239482Y-152307249D01*
X149784587Y-152652840D01*
X149223206Y-153090766D01*
X148688548Y-153507715D01*
X148373757Y-153753104D01*
X147623942Y-154343468D01*
X147005014Y-154849678D01*
X146437624Y-155342117D01*
X145842421Y-155891167D01*
X145140053Y-156567211D01*
X144562690Y-157133455D01*
X142639461Y-159027443D01*
X143103906Y-159609527D01*
X143415170Y-159965686D01*
X143647421Y-160171436D01*
X143697068Y-160191616D01*
X143773848Y-160345090D01*
X143819891Y-160733368D01*
X143825784Y-160963919D01*
X143825784Y-161736216D01*
X143126740Y-161736216D01*
X142663731Y-161695606D01*
X142303774Y-161526969D01*
X141911837Y-161160095D01*
X141815755Y-161054554D01*
X141203815Y-160372892D01*
X140606298Y-161054554D01*
X140194604Y-161474413D01*
X139839136Y-161677812D01*
X139408441Y-161735682D01*
X139342958Y-161736216D01*
X138677136Y-161736216D01*
X138677930Y-161006824D01*
X138759668Y-160379990D01*
X139052365Y-159873334D01*
X139149889Y-159761422D01*
X139607377Y-159253509D01*
X139857227Y-158913954D01*
X139918791Y-158653641D01*
X139811418Y-158383456D01*
X139554461Y-158014282D01*
X139535078Y-157987547D01*
X139121748Y-157226733D01*
X139020379Y-156674864D01*
X139036890Y-156304458D01*
X139148797Y-156129344D01*
X139449662Y-156076339D01*
X139790241Y-156072702D01*
X140278785Y-156099936D01*
X140593841Y-156234610D01*
X140876233Y-156556188D01*
X141018901Y-156765992D01*
X141477698Y-157459282D01*
X143466944Y-155512466D01*
X144208473Y-154797069D01*
X144930225Y-154119132D01*
X145568375Y-153537332D01*
X146059099Y-153110343D01*
X146227920Y-152974243D01*
X146704133Y-152607838D01*
X147098367Y-152301956D01*
X147257650Y-152176614D01*
X148344260Y-151332591D01*
X149249218Y-150681123D01*
X149946262Y-150240657D01*
X150202015Y-150108339D01*
X150853416Y-149808513D01*
X150857843Y-136207500D01*
X150862271Y-122606486D01*
X214875056Y-122606486D01*
X214962946Y-149635558D01*
X215745376Y-150065279D01*
X216165797Y-150319940D01*
X216734016Y-150706371D01*
X217474763Y-151242763D01*
X218412764Y-151947308D01*
X219572750Y-152838198D01*
X220592885Y-153631473D01*
X221182461Y-154085911D01*
X221578235Y-154330975D01*
X221862455Y-154361287D01*
X222117364Y-154171467D01*
X222425209Y-153756138D01*
X222598806Y-153500297D01*
X222971890Y-152966867D01*
X223244241Y-152658657D01*
X223503545Y-152513979D01*
X223837488Y-152471148D01*
X224065287Y-152468648D01*
X224537273Y-152481808D01*
X224759820Y-152570298D01*
X224826728Y-152807634D01*
X224831190Y-153068927D01*
X224701723Y-153686811D01*
X224297957Y-154409639D01*
X224230514Y-154505302D01*
X223909288Y-154979913D01*
X223691323Y-155354557D01*
X223629838Y-155517538D01*
X223763623Y-155697540D01*
X224110440Y-155984005D01*
X224487946Y-156244324D01*
X224972882Y-156575960D01*
X225230145Y-156839276D01*
X225330715Y-157135128D01*
X225346054Y-157463566D01*
X225346054Y-158132162D01*
X224611944Y-158132162D01*
X224066817Y-158078969D01*
X223620636Y-157946689D01*
X223539309Y-157901048D01*
X222957221Y-157503835D01*
X222580970Y-157288922D01*
X222323783Y-157259179D01*
X222098888Y-157417471D01*
X221819512Y-157766668D01*
X221671282Y-157962787D01*
X221283810Y-158440794D01*
X220984010Y-158698637D01*
X220670023Y-158802325D01*
X220350567Y-158818648D01*
X219682541Y-158818648D01*
X219682541Y-158085454D01*
X219759301Y-157471660D01*
X220036446Y-156935577D01*
X220198121Y-156726771D01*
X220713702Y-156101283D01*
X219554540Y-155236530D01*
X218928748Y-154765527D01*
X218144339Y-154169118D01*
X217313481Y-153532831D01*
X216722261Y-153076970D01*
X216075631Y-152581641D01*
X215530704Y-152173815D01*
X215142483Y-151893975D01*
X214965970Y-151782605D01*
X214963139Y-151782162D01*
X214951252Y-151949992D01*
X214939852Y-152438314D01*
X214929049Y-153224378D01*
X214918957Y-154285435D01*
X214909687Y-155598732D01*
X214901350Y-157141520D01*
X214894059Y-158891048D01*
X214887925Y-160824567D01*
X214883060Y-162919324D01*
X214879575Y-165152571D01*
X214877583Y-167501555D01*
X214877136Y-169287567D01*
X214877136Y-186792973D01*
X150862271Y-186792973D01*
X150862271Y-185420000D01*
X152235244Y-185420000D01*
X213501739Y-185420000D01*
X213499885Y-154699729D01*
X213498032Y-123979459D01*
X152235244Y-123979459D01*
X152235244Y-185420000D01*
X150862271Y-185420000D01*
X150862271Y-169373378D01*
X150861395Y-166959919D01*
G37*
G36*
X192566325Y-145260540D02*
G01*
X191193352Y-145260540D01*
X191193352Y-143887567D01*
X192566325Y-143887567D01*
X192566325Y-145260540D01*
G37*
G36*
X210569354Y-115434438D02*
G01*
X210825011Y-115541798D01*
X210981158Y-115793605D01*
X211062428Y-116236483D01*
X211093452Y-116917054D01*
X211098862Y-117881943D01*
X211099116Y-118188684D01*
X211103667Y-119044502D01*
X211120611Y-119608938D01*
X211158435Y-119933828D01*
X211225629Y-120071011D01*
X211330680Y-120072324D01*
X211401798Y-120037248D01*
X211967177Y-119763547D01*
X212670784Y-119485293D01*
X213399893Y-119240412D01*
X214041778Y-119066826D01*
X214477670Y-119002432D01*
X214832034Y-119021647D01*
X214997474Y-119142385D01*
X215045919Y-119459283D01*
X215048757Y-119753804D01*
X215048757Y-120505177D01*
X213976122Y-120902521D01*
X213327001Y-121161242D01*
X212732402Y-121428906D01*
X212388622Y-121609290D01*
X211747372Y-121840839D01*
X210832601Y-121919297D01*
X210805965Y-121919358D01*
X209738173Y-121920000D01*
X209690425Y-119560202D01*
X209642676Y-117200405D01*
X208140987Y-117250289D01*
X206639298Y-117300174D01*
X206639298Y-115774749D01*
X207540311Y-115672268D01*
X208203047Y-115602303D01*
X209012758Y-115524269D01*
X209660984Y-115466567D01*
X210189555Y-115424902D01*
X210569354Y-115434438D01*
G37*
G36*
X157486198Y-146845265D02*
G01*
X157789723Y-147023650D01*
X158083642Y-147427284D01*
X158089373Y-147436545D01*
X158738640Y-148360993D01*
X159540840Y-149316312D01*
X160389591Y-150183746D01*
X161072675Y-150766675D01*
X161666108Y-151164278D01*
X162341769Y-151511002D01*
X163133701Y-151814439D01*
X164075948Y-152082180D01*
X165202551Y-152321818D01*
X166547555Y-152540944D01*
X168145004Y-152747150D01*
X170028939Y-152948027D01*
X171456865Y-153082373D01*
X172568650Y-153183595D01*
X173685138Y-153286768D01*
X174710051Y-153382889D01*
X175547107Y-153462958D01*
X175919027Y-153499541D01*
X176973799Y-153576095D01*
X178288805Y-153626494D01*
X179782084Y-153651384D01*
X181371675Y-153651415D01*
X182975617Y-153627232D01*
X184511950Y-153579484D01*
X185898712Y-153508818D01*
X187053942Y-153415883D01*
X187099007Y-153411204D01*
X189627163Y-153136384D01*
X191837643Y-152874991D01*
X193755537Y-152622322D01*
X195405931Y-152373674D01*
X196813916Y-152124344D01*
X198004579Y-151869629D01*
X199003009Y-151604824D01*
X199834295Y-151325228D01*
X200523525Y-151026136D01*
X200898281Y-150824301D01*
X201703028Y-150493536D01*
X202320930Y-150409189D01*
X203035244Y-150409189D01*
X203035244Y-151079368D01*
X203004230Y-151503731D01*
X202857649Y-151787472D01*
X202515192Y-152050765D01*
X202299081Y-152180966D01*
X201685359Y-152497098D01*
X200951467Y-152789816D01*
X200071861Y-153063927D01*
X199020999Y-153324243D01*
X197773339Y-153575570D01*
X196303336Y-153822718D01*
X194585450Y-154070497D01*
X192594137Y-154323714D01*
X190303855Y-154587179D01*
X188471980Y-154784177D01*
X187598719Y-154853706D01*
X186452295Y-154911716D01*
X185096023Y-154957819D01*
X183593217Y-154991627D01*
X182007194Y-155012753D01*
X180401269Y-155020809D01*
X178838756Y-155015406D01*
X177382970Y-154996158D01*
X176097228Y-154962677D01*
X175044844Y-154914574D01*
X174460244Y-154869994D01*
X173883772Y-154814648D01*
X173051086Y-154736061D01*
X172047790Y-154642246D01*
X170959485Y-154541217D01*
X170169703Y-154468358D01*
X168021665Y-154258857D01*
X166182175Y-154048592D01*
X164616695Y-153826410D01*
X163290687Y-153581162D01*
X162169612Y-153301696D01*
X161218934Y-152976861D01*
X160404114Y-152595506D01*
X159690614Y-152146479D01*
X159043895Y-151618630D01*
X158429421Y-151000807D01*
X158034966Y-150550468D01*
X157333285Y-149686927D01*
X156846670Y-149003742D01*
X156542925Y-148443201D01*
X156389855Y-147947592D01*
X156354163Y-147537593D01*
X156354163Y-146805135D01*
X157026652Y-146805135D01*
X157486198Y-146845265D01*
G37*
G36*
X167166325Y-146118648D02*
G01*
X165793352Y-146118648D01*
X165793352Y-144745675D01*
X167166325Y-144745675D01*
X167166325Y-146118648D01*
G37*
G36*
X186899192Y-171184566D02*
G01*
X187363878Y-171223775D01*
X187675941Y-171320280D01*
X187930643Y-171498705D01*
X188117364Y-171677068D01*
X188334883Y-171906875D01*
X188478213Y-172126695D01*
X188562823Y-172411433D01*
X188604184Y-172835996D01*
X188617765Y-173475292D01*
X188619027Y-174106184D01*
X188614433Y-174954579D01*
X188588380Y-175553130D01*
X188522462Y-175995223D01*
X188398272Y-176374245D01*
X188197406Y-176783580D01*
X188032373Y-177082672D01*
X187608617Y-177770160D01*
X187117172Y-178467111D01*
X186767851Y-178901192D01*
X186089984Y-179670675D01*
X188298425Y-179618229D01*
X190506865Y-179565782D01*
X190506865Y-180912845D01*
X188661933Y-181023950D01*
X187619358Y-181086069D01*
X186437940Y-181155440D01*
X185321437Y-181220126D01*
X184972068Y-181240113D01*
X183127136Y-181345171D01*
X183132364Y-180679545D01*
X183169986Y-180298788D01*
X183309370Y-179947822D01*
X183600307Y-179538662D01*
X184091788Y-178984189D01*
X184928443Y-178062386D01*
X185570306Y-177305476D01*
X186072351Y-176642912D01*
X186489552Y-176004146D01*
X186710446Y-175623691D01*
X187105286Y-174776435D01*
X187232662Y-174090921D01*
X187093270Y-173514635D01*
X186744623Y-173050273D01*
X186282919Y-172708529D01*
X185911263Y-172681435D01*
X185652065Y-172968423D01*
X185610617Y-173079098D01*
X185461921Y-173293628D01*
X185134517Y-173390145D01*
X184745976Y-173406486D01*
X184276067Y-173393306D01*
X184055276Y-173303287D01*
X183989480Y-173060715D01*
X183985244Y-172794528D01*
X184078511Y-172118066D01*
X184325323Y-171561423D01*
X184568706Y-171306749D01*
X184818909Y-171248163D01*
X185318054Y-171203356D01*
X185971896Y-171179827D01*
X186186621Y-171178033D01*
X186899192Y-171184566D01*
G37*
G36*
X201179289Y-116875064D02*
G01*
X201516419Y-116518571D01*
X201800702Y-116301567D01*
X202080792Y-116173092D01*
X202451232Y-116114478D01*
X203006568Y-116107058D01*
X203527952Y-116121391D01*
X205008892Y-116170675D01*
X205061429Y-117193254D01*
X205080856Y-117999254D01*
X205014573Y-118547402D01*
X204824051Y-118919831D01*
X204470764Y-119198676D01*
X204015681Y-119422594D01*
X203458898Y-119663006D01*
X202988463Y-119856442D01*
X202791078Y-119931027D01*
X202569829Y-120029015D01*
X202619278Y-120147091D01*
X202822556Y-120297309D01*
X203173725Y-120471393D01*
X203732301Y-120675121D01*
X204312565Y-120846479D01*
X204965320Y-120999970D01*
X205388099Y-121044895D01*
X205674710Y-120986629D01*
X205780447Y-120930562D01*
X206172276Y-120791720D01*
X206703531Y-120720954D01*
X206808591Y-120718648D01*
X207248992Y-120735611D01*
X207445063Y-120848926D01*
X207495709Y-121152234D01*
X207497406Y-121370811D01*
X207446174Y-121851323D01*
X207320037Y-122194039D01*
X207291460Y-122228919D01*
X207015557Y-122329549D01*
X206481174Y-122393960D01*
X205771045Y-122423182D01*
X204967906Y-122418244D01*
X204154491Y-122380176D01*
X203413536Y-122310009D01*
X202827776Y-122208771D01*
X202692000Y-122171664D01*
X201805553Y-121843891D01*
X201209114Y-121465915D01*
X200850074Y-120966828D01*
X200675824Y-120275719D01*
X200633498Y-119397104D01*
X200688766Y-118307790D01*
X200776351Y-117898968D01*
X202863622Y-117898968D01*
X202989753Y-117897802D01*
X203206865Y-117801081D01*
X203476577Y-117623845D01*
X203550108Y-117531572D01*
X203423977Y-117532738D01*
X203206865Y-117629459D01*
X202937153Y-117806695D01*
X202863622Y-117898968D01*
X200776351Y-117898968D01*
X200864641Y-117486851D01*
X201179289Y-116875064D01*
G37*
G36*
X179351460Y-174779459D02*
G01*
X181410919Y-174779459D01*
X181410919Y-175465946D01*
X181386466Y-175909262D01*
X181275279Y-176106214D01*
X181020615Y-176152369D01*
X181003318Y-176152432D01*
X180530331Y-176187108D01*
X180060180Y-176259539D01*
X179524644Y-176366647D01*
X179634318Y-177546702D01*
X179743993Y-178726756D01*
X179061465Y-178726756D01*
X178599739Y-178700300D01*
X178299716Y-178634546D01*
X178264523Y-178612342D01*
X178199833Y-178388552D01*
X178158354Y-177939468D01*
X178150108Y-177595847D01*
X178150108Y-176693766D01*
X175575784Y-176888462D01*
X175575784Y-175490562D01*
X176562608Y-175288267D01*
X177134605Y-175168076D01*
X177582916Y-175068597D01*
X177763960Y-175023912D01*
X177906630Y-174816585D01*
X177975136Y-174343922D01*
X177978487Y-174184170D01*
X177978487Y-173406486D01*
X179351460Y-173406486D01*
X179351460Y-174779459D01*
G37*
G36*
X168913382Y-171355659D02*
G01*
X169338741Y-171401620D01*
X169619140Y-171515003D01*
X169853686Y-171725904D01*
X169982825Y-171875059D01*
X170175187Y-172123633D01*
X170302225Y-172374273D01*
X170377426Y-172702655D01*
X170414275Y-173184454D01*
X170426256Y-173895348D01*
X170427136Y-174368467D01*
X170421100Y-175239901D01*
X170392277Y-175861521D01*
X170324590Y-176326690D01*
X170201963Y-176728772D01*
X170008322Y-177161130D01*
X169913550Y-177351248D01*
X169553222Y-177995535D01*
X169153208Y-178608163D01*
X168883821Y-178956511D01*
X168575548Y-179321753D01*
X168391011Y-179567689D01*
X168367676Y-179615317D01*
X168528338Y-179636837D01*
X168967052Y-179644432D01*
X169618911Y-179638118D01*
X170419005Y-179617907D01*
X170512946Y-179614848D01*
X172658217Y-179543428D01*
X172658217Y-180920321D01*
X171328149Y-181029016D01*
X170597187Y-181082346D01*
X169657632Y-181141803D01*
X168643840Y-181199243D01*
X167895717Y-181237043D01*
X165793352Y-181336376D01*
X165793352Y-180672856D01*
X165925815Y-180042100D01*
X166305781Y-179250739D01*
X166907117Y-178345383D01*
X167538188Y-177560881D01*
X167996546Y-176936790D01*
X168426362Y-176189153D01*
X168777774Y-175423095D01*
X169000916Y-174743742D01*
X169054163Y-174364869D01*
X168890674Y-173668517D01*
X168643474Y-173291416D01*
X168351025Y-172986131D01*
X168123048Y-172914208D01*
X167812756Y-173038483D01*
X167758330Y-173067319D01*
X167395605Y-173338996D01*
X167205083Y-173621013D01*
X167038505Y-173833746D01*
X166639263Y-173917045D01*
X166459822Y-173921351D01*
X165793352Y-173921351D01*
X165793352Y-172991430D01*
X165810472Y-172439461D01*
X165898308Y-172108526D01*
X166111573Y-171876785D01*
X166371379Y-171704267D01*
X166793633Y-171500562D01*
X167303469Y-171389113D01*
X168012738Y-171348582D01*
X168243961Y-171347027D01*
X168913382Y-171355659D01*
G37*
%TD*%
%LPC*%
D10*
%TO.C,MX53*%
X152906952Y-168337452D03*
X163066952Y-168337452D03*
D11*
X157986952Y-168337452D03*
%TD*%
%TO.C,MX29*%
X300861952Y-130237452D03*
D10*
X295781952Y-130237452D03*
X305941952Y-130237452D03*
%TD*%
%TO.C,MX57*%
X239266952Y-168337452D03*
D11*
X234186952Y-168337452D03*
D10*
X229106952Y-168337452D03*
%TD*%
D11*
%TO.C,MX68*%
X160368202Y-187387452D03*
D12*
X210368102Y-194372452D03*
D10*
X155288202Y-187387452D03*
D12*
X110368302Y-194372452D03*
D11*
X210368102Y-179132452D03*
X110368302Y-179132452D03*
D10*
X165448202Y-187387452D03*
%TD*%
%TO.C,MX56*%
X220216952Y-168337452D03*
X210056952Y-168337452D03*
D11*
X215136952Y-168337452D03*
%TD*%
D10*
%TO.C,MX74*%
X300544452Y-187387452D03*
D11*
X305624452Y-187387452D03*
D10*
X310704452Y-187387452D03*
%TD*%
%TO.C,MX66*%
X83850702Y-187387452D03*
D11*
X88930702Y-187387452D03*
D10*
X94010702Y-187387452D03*
%TD*%
%TO.C,MX24*%
X205929452Y-130237452D03*
D11*
X200849452Y-130237452D03*
D10*
X195769452Y-130237452D03*
%TD*%
D11*
%TO.C,MX39*%
X186561952Y-149287452D03*
D10*
X191641952Y-149287452D03*
X181481952Y-149287452D03*
%TD*%
%TO.C,MX49*%
X86866952Y-168337452D03*
D11*
X81786952Y-168337452D03*
D10*
X76706952Y-168337452D03*
%TD*%
%TO.C,MX42*%
X248791952Y-149287452D03*
X238631952Y-149287452D03*
D11*
X243711952Y-149287452D03*
%TD*%
D10*
%TO.C,MX20*%
X129729452Y-130237452D03*
X119569452Y-130237452D03*
D11*
X124649452Y-130237452D03*
%TD*%
%TO.C,MX10*%
X210374452Y-111187452D03*
D10*
X215454452Y-111187452D03*
X205294452Y-111187452D03*
%TD*%
D11*
%TO.C,MX72*%
X255618202Y-187387452D03*
D10*
X260698202Y-187387452D03*
X250538202Y-187387452D03*
%TD*%
D11*
%TO.C,MX38*%
X167511952Y-149287452D03*
D10*
X172591952Y-149287452D03*
X162431952Y-149287452D03*
%TD*%
%TO.C,MX70*%
X226725702Y-187387452D03*
X236885702Y-187387452D03*
D11*
X231805702Y-187387452D03*
%TD*%
D10*
%TO.C,MX43*%
X257681952Y-149287452D03*
D11*
X262761952Y-149287452D03*
D10*
X267841952Y-149287452D03*
%TD*%
D11*
%TO.C,MX7*%
X153224452Y-111187452D03*
D10*
X158304452Y-111187452D03*
X148144452Y-111187452D03*
%TD*%
%TO.C,MX11*%
X224344452Y-111187452D03*
D11*
X229424452Y-111187452D03*
D10*
X234504452Y-111187452D03*
%TD*%
D11*
%TO.C,MX71*%
X253236952Y-187387452D03*
D10*
X248156952Y-187387452D03*
X258316952Y-187387452D03*
%TD*%
D11*
%TO.C,MX37*%
X148461952Y-149287452D03*
D10*
X143381952Y-149287452D03*
X153541952Y-149287452D03*
%TD*%
%TO.C,MX36*%
X124331952Y-149287452D03*
D11*
X129411952Y-149287452D03*
D10*
X134491952Y-149287452D03*
%TD*%
%TO.C,MX40*%
X210691952Y-149287452D03*
X200531952Y-149287452D03*
D11*
X205611952Y-149287452D03*
%TD*%
D10*
%TO.C,MX50*%
X95756952Y-168337452D03*
D11*
X100836952Y-168337452D03*
D10*
X105916952Y-168337452D03*
%TD*%
%TO.C,MX59*%
X284510702Y-168337452D03*
X274350702Y-168337452D03*
D11*
X279430702Y-168337452D03*
%TD*%
D10*
%TO.C,MX25*%
X214819452Y-130237452D03*
D11*
X219899452Y-130237452D03*
D10*
X224979452Y-130237452D03*
%TD*%
%TO.C,MX33*%
X77341952Y-149287452D03*
D11*
X72261952Y-149287452D03*
D10*
X67181952Y-149287452D03*
%TD*%
D11*
%TO.C,MX69*%
X172274452Y-187387452D03*
X229424452Y-179132452D03*
D12*
X115124452Y-194372452D03*
D11*
X115124452Y-179132452D03*
D10*
X177354452Y-187387452D03*
D12*
X229424452Y-194372452D03*
D10*
X167194452Y-187387452D03*
%TD*%
D11*
%TO.C,MX65*%
X67499452Y-187387452D03*
D10*
X72579452Y-187387452D03*
X62419452Y-187387452D03*
%TD*%
%TO.C,MX26*%
X233869452Y-130237452D03*
X244029452Y-130237452D03*
D11*
X238949452Y-130237452D03*
%TD*%
%TO.C,MX16*%
X43686952Y-130237452D03*
D10*
X38606952Y-130237452D03*
X48766952Y-130237452D03*
%TD*%
%TO.C,MX52*%
X144016952Y-168337452D03*
X133856952Y-168337452D03*
D11*
X138936952Y-168337452D03*
%TD*%
%TO.C,MX45*%
X281811952Y-157542452D03*
D12*
X305624452Y-142302452D03*
D11*
X293718202Y-149287452D03*
X305624452Y-157542452D03*
D10*
X288638202Y-149287452D03*
D12*
X281811952Y-142302452D03*
D10*
X298798202Y-149287452D03*
%TD*%
%TO.C,MX22*%
X157669452Y-130237452D03*
D11*
X162749452Y-130237452D03*
D10*
X167829452Y-130237452D03*
%TD*%
%TO.C,MX32*%
X51148202Y-149287452D03*
D11*
X46068202Y-149287452D03*
D10*
X40988202Y-149287452D03*
%TD*%
%TO.C,MX6*%
X129094452Y-111187452D03*
X139254452Y-111187452D03*
D11*
X134174452Y-111187452D03*
%TD*%
%TO.C,MX48*%
X62736952Y-176592452D03*
X38924452Y-176592452D03*
D10*
X55910702Y-168337452D03*
D12*
X38924452Y-161352452D03*
D11*
X50830702Y-168337452D03*
D10*
X45750702Y-168337452D03*
D12*
X62736952Y-161352452D03*
%TD*%
D11*
%TO.C,MX51*%
X119886952Y-168337452D03*
D10*
X124966952Y-168337452D03*
X114806952Y-168337452D03*
%TD*%
%TO.C,MX34*%
X96391952Y-149287452D03*
X86231952Y-149287452D03*
D11*
X91311952Y-149287452D03*
%TD*%
D10*
%TO.C,MX73*%
X281494452Y-187387452D03*
X291654452Y-187387452D03*
D11*
X286574452Y-187387452D03*
%TD*%
%TO.C,MX14*%
X284193202Y-119442452D03*
X296099452Y-111187452D03*
X308005702Y-119442452D03*
D10*
X291019452Y-111187452D03*
X301179452Y-111187452D03*
D12*
X284193202Y-104202452D03*
X308005702Y-104202452D03*
%TD*%
D10*
%TO.C,MX64*%
X60038202Y-187387452D03*
D11*
X65118202Y-187387452D03*
D10*
X70198202Y-187387452D03*
%TD*%
%TO.C,MX61*%
X329754452Y-168337452D03*
X319594452Y-168337452D03*
D11*
X324674452Y-168337452D03*
%TD*%
%TO.C,MX2*%
X57974452Y-111187452D03*
D10*
X63054452Y-111187452D03*
X52894452Y-111187452D03*
%TD*%
%TO.C,MX47*%
X329754452Y-149287452D03*
X319594452Y-149287452D03*
D11*
X324674452Y-149287452D03*
%TD*%
%TO.C,MX62*%
X41305702Y-187387452D03*
D10*
X46385702Y-187387452D03*
X36225702Y-187387452D03*
%TD*%
%TO.C,MX60*%
X310704452Y-168337452D03*
X300544452Y-168337452D03*
D11*
X305624452Y-168337452D03*
%TD*%
D10*
%TO.C,MX46*%
X308323202Y-149287452D03*
X298163202Y-149287452D03*
D11*
X303243202Y-149287452D03*
%TD*%
D10*
%TO.C,MX30*%
X319594452Y-130237452D03*
X329754452Y-130237452D03*
D11*
X324674452Y-130237452D03*
%TD*%
D10*
%TO.C,MX4*%
X101154452Y-111187452D03*
D11*
X96074452Y-111187452D03*
D10*
X90994452Y-111187452D03*
%TD*%
%TO.C,MX12*%
X253554452Y-111187452D03*
X243394452Y-111187452D03*
D11*
X248474452Y-111187452D03*
%TD*%
D10*
%TO.C,MX18*%
X91629452Y-130237452D03*
D11*
X86549452Y-130237452D03*
D10*
X81469452Y-130237452D03*
%TD*%
%TO.C,MX23*%
X186879452Y-130237452D03*
D11*
X181799452Y-130237452D03*
D10*
X176719452Y-130237452D03*
%TD*%
D11*
%TO.C,MX21*%
X143699452Y-130237452D03*
D10*
X138619452Y-130237452D03*
X148779452Y-130237452D03*
%TD*%
%TO.C,MX63*%
X38606952Y-187387452D03*
X48766952Y-187387452D03*
D11*
X43686952Y-187387452D03*
%TD*%
D10*
%TO.C,MX9*%
X186244452Y-111187452D03*
X196404452Y-111187452D03*
D11*
X191324452Y-111187452D03*
%TD*%
D10*
%TO.C,MX27*%
X252919452Y-130237452D03*
X263079452Y-130237452D03*
D11*
X257999452Y-130237452D03*
%TD*%
%TO.C,MX28*%
X277049452Y-130237452D03*
D10*
X282129452Y-130237452D03*
X271969452Y-130237452D03*
%TD*%
D11*
%TO.C,MX15*%
X324674452Y-111187452D03*
D10*
X319594452Y-111187452D03*
X329754452Y-111187452D03*
%TD*%
%TO.C,MX17*%
X62419452Y-130237452D03*
X72579452Y-130237452D03*
D11*
X67499452Y-130237452D03*
%TD*%
%TO.C,MX44*%
X281811952Y-149287452D03*
D10*
X286891952Y-149287452D03*
X276731952Y-149287452D03*
%TD*%
%TO.C,MX54*%
X182116952Y-168337452D03*
X171956952Y-168337452D03*
D11*
X177036952Y-168337452D03*
%TD*%
%TO.C,MX75*%
X324674452Y-187387452D03*
D10*
X329754452Y-187387452D03*
X319594452Y-187387452D03*
%TD*%
%TO.C,MX1*%
X44004452Y-111187452D03*
D11*
X38924452Y-111187452D03*
D10*
X33844452Y-111187452D03*
%TD*%
%TO.C,MX5*%
X110044452Y-111187452D03*
X120204452Y-111187452D03*
D11*
X115124452Y-111187452D03*
%TD*%
%TO.C,MX58*%
X253236952Y-168337452D03*
D10*
X258316952Y-168337452D03*
X248156952Y-168337452D03*
%TD*%
%TO.C,MX19*%
X100519452Y-130237452D03*
D11*
X105599452Y-130237452D03*
D10*
X110679452Y-130237452D03*
%TD*%
%TO.C,MX67*%
X86231952Y-187387452D03*
D11*
X91311952Y-187387452D03*
D10*
X96391952Y-187387452D03*
%TD*%
D11*
%TO.C,MX8*%
X172274452Y-111187452D03*
D10*
X177354452Y-111187452D03*
X167194452Y-111187452D03*
%TD*%
D11*
%TO.C,MX35*%
X110361952Y-149287452D03*
D10*
X115441952Y-149287452D03*
X105281952Y-149287452D03*
%TD*%
%TO.C,MX3*%
X71944452Y-111187452D03*
D11*
X77024452Y-111187452D03*
D10*
X82104452Y-111187452D03*
%TD*%
%TO.C,MX31*%
X46385702Y-149287452D03*
X36225702Y-149287452D03*
D11*
X41305702Y-149287452D03*
%TD*%
D10*
%TO.C,MX55*%
X201166952Y-168337452D03*
D11*
X196086952Y-168337452D03*
D10*
X191006952Y-168337452D03*
%TD*%
D11*
%TO.C,MX13*%
X267524452Y-111187452D03*
D10*
X262444452Y-111187452D03*
X272604452Y-111187452D03*
%TD*%
D11*
%TO.C,MX41*%
X224661952Y-149287452D03*
D10*
X229741952Y-149287452D03*
X219581952Y-149287452D03*
%TD*%
D13*
%TO.C,J2*%
X102718000Y-180116000D03*
D14*
X102718000Y-182656000D03*
X102718000Y-185196000D03*
X102718000Y-187736000D03*
X102718000Y-190276000D03*
%TD*%
M02*
