M48
; DRILL file {KiCad (6.0.8-1)-1} date Sunday, December 25, 2022 at 10:37:34 AM
; FORMAT={-:-/ absolute / inch / decimal}
; #@! TF.CreationDate,2022-12-25T10:37:34-08:00
; #@! TF.GenerationSoftware,Kicad,Pcbnew,(6.0.8-1)-1
; #@! TF.FileFunction,NonPlated,1,2,NPTH
FMAT,2
INCH
; #@! TA.AperFunction,NonPlated,NPTH,ComponentDrill
T1C0.0689
; #@! TA.AperFunction,NonPlated,NPTH,ComponentDrill
T2C0.1200
; #@! TA.AperFunction,NonPlated,NPTH,ComponentDrill
T3C0.1570
%
G90
G05
T1
X1.3325Y-4.3775
X1.4262Y-5.8775
X1.4262Y-7.3775
X1.52Y-5.1275
X1.52Y-7.3775
X1.6137Y-5.8775
X1.7325Y-4.3775
X1.8012Y-6.6275
X1.8262Y-5.8775
X1.8262Y-7.3775
X1.92Y-5.1275
X1.92Y-7.3775
X2.0137Y-5.8775
X2.0825Y-4.3775
X2.2012Y-6.6275
X2.3637Y-7.3775
X2.4575Y-5.1275
X2.4575Y-7.3775
X2.4825Y-4.3775
X2.645Y-5.8775
X2.7637Y-7.3775
X2.8325Y-4.3775
X2.8575Y-5.1275
X2.8575Y-7.3775
X3.02Y-6.6275
X3.045Y-5.8775
X3.2075Y-5.1275
X3.2325Y-4.3775
X3.3012Y-7.3775
X3.395Y-5.8775
X3.395Y-7.3775
X3.42Y-6.6275
X3.5825Y-4.3775
X3.6075Y-5.1275
X3.7012Y-7.3775
X3.77Y-6.6275
X3.795Y-5.8775
X3.795Y-7.3775
X3.9575Y-5.1275
X3.9825Y-4.3775
X4.145Y-5.8775
X4.17Y-6.6275
X4.3325Y-4.3775
X4.3575Y-5.1275
X4.52Y-6.6275
X4.545Y-5.8775
X4.7075Y-5.1275
X4.7325Y-4.3775
X4.895Y-5.8775
X4.92Y-6.6275
X5.0825Y-4.3775
X5.1075Y-5.1275
X5.27Y-6.6275
X5.295Y-5.8775
X5.4575Y-5.1275
X5.4825Y-4.3775
X5.645Y-5.8775
X5.67Y-6.6275
X5.8325Y-4.3775
X5.8575Y-5.1275
X6.02Y-6.6275
X6.045Y-5.8775
X6.1137Y-7.3775
X6.2075Y-5.1275
X6.2325Y-4.3775
X6.395Y-5.8775
X6.42Y-6.6275
X6.5137Y-7.3775
X6.5825Y-4.3775
X6.5825Y-7.3775
X6.6075Y-5.1275
X6.77Y-6.6275
X6.795Y-5.8775
X6.9575Y-5.1275
X6.9825Y-4.3775
X6.9825Y-7.3775
X7.145Y-5.8775
X7.17Y-6.6275
X7.3325Y-4.3775
X7.3575Y-5.1275
X7.52Y-6.6275
X7.545Y-5.8775
X7.7075Y-5.1275
X7.7325Y-4.3775
X7.895Y-5.8775
X7.92Y-6.6275
X8.0825Y-4.3775
X8.1075Y-5.1275
X8.27Y-6.6275
X8.295Y-5.8775
X8.4575Y-5.1275
X8.4825Y-4.3775
X8.645Y-5.8775
X8.67Y-6.6275
X8.8325Y-4.3775
X8.8575Y-5.1275
X8.9262Y-7.3775
X9.02Y-6.6275
X9.045Y-5.8775
X9.2075Y-5.1275
X9.2325Y-4.3775
X9.3262Y-7.3775
X9.395Y-5.8775
X9.42Y-6.6275
X9.5825Y-4.3775
X9.6075Y-5.1275
X9.77Y-6.6275
X9.77Y-7.3775
X9.795Y-5.8775
X9.8637Y-7.3775
X9.9575Y-5.1275
X9.9825Y-4.3775
X10.145Y-5.8775
X10.17Y-6.6275
X10.17Y-7.3775
X10.2637Y-7.3775
X10.3325Y-4.3775
X10.3575Y-5.1275
X10.545Y-5.8775
X10.7075Y-5.1275
X10.7325Y-4.3775
X10.8012Y-6.6275
X10.895Y-5.8775
X11.0825Y-7.3775
X11.1075Y-5.1275
X11.2012Y-6.6275
X11.295Y-5.8775
X11.3637Y-5.8775
X11.4575Y-4.3775
X11.4825Y-7.3775
X11.645Y-5.1275
X11.7387Y-5.8775
X11.7637Y-5.8775
X11.8325Y-6.6275
X11.8325Y-7.3775
X11.8575Y-4.3775
X12.045Y-5.1275
X12.1387Y-5.8775
X12.2325Y-6.6275
X12.2325Y-7.3775
X12.5825Y-4.3775
X12.5825Y-5.1275
X12.5825Y-5.8775
X12.5825Y-6.6275
X12.5825Y-7.3775
X12.9825Y-4.3775
X12.9825Y-5.1275
X12.9825Y-5.8775
X12.9825Y-6.6275
X12.9825Y-7.3775
T2
X1.5325Y-6.3525
X2.47Y-6.3525
X4.3452Y-7.6525
X4.5325Y-7.6525
X8.2822Y-7.6525
X9.0325Y-7.6525
X11.095Y-5.6025
X11.1887Y-4.1025
X12.0325Y-5.6025
X12.1262Y-4.1025
T3
X1.5325Y-4.3775
X1.5325Y-6.9525
X1.6262Y-5.8775
X1.6262Y-7.3775
X1.72Y-5.1275
X1.72Y-7.3775
X1.8137Y-5.8775
X2.0012Y-6.6275
X2.2825Y-4.3775
X2.47Y-6.9525
X2.5637Y-7.3775
X2.6575Y-5.1275
X2.6575Y-7.3775
X2.845Y-5.8775
X3.0325Y-4.3775
X3.22Y-6.6275
X3.4075Y-5.1275
X3.5012Y-7.3775
X3.595Y-5.8775
X3.595Y-7.3775
X3.7825Y-4.3775
X3.97Y-6.6275
X4.1575Y-5.1275
X4.345Y-5.8775
X4.3452Y-7.0525
X4.5325Y-4.3775
X4.5325Y-7.0525
X4.72Y-6.6275
X4.9075Y-5.1275
X5.095Y-5.8775
X5.2825Y-4.3775
X5.47Y-6.6275
X5.6575Y-5.1275
X5.845Y-5.8775
X6.0325Y-4.3775
X6.22Y-6.6275
X6.3137Y-7.3775
X6.4075Y-5.1275
X6.595Y-5.8775
X6.7825Y-4.3775
X6.7825Y-7.3775
X6.97Y-6.6275
X7.1575Y-5.1275
X7.345Y-5.8775
X7.5325Y-4.3775
X7.72Y-6.6275
X7.9075Y-5.1275
X8.095Y-5.8775
X8.2822Y-7.0525
X8.2825Y-4.3775
X8.47Y-6.6275
X8.6575Y-5.1275
X8.845Y-5.8775
X9.0325Y-4.3775
X9.0325Y-7.0525
X9.1262Y-7.3775
X9.22Y-6.6275
X9.4075Y-5.1275
X9.595Y-5.8775
X9.7825Y-4.3775
X9.97Y-6.6275
X9.97Y-7.3775
X10.0637Y-7.3775
X10.1575Y-5.1275
X10.345Y-5.8775
X10.5325Y-4.3775
X10.9075Y-5.1275
X11.0012Y-6.6275
X11.095Y-5.8775
X11.095Y-6.2025
X11.1887Y-4.7025
X11.2825Y-7.3775
X11.5637Y-5.8775
X11.6575Y-4.3775
X11.845Y-5.1275
X11.9387Y-5.8775
X12.0325Y-6.2025
X12.0325Y-6.6275
X12.0325Y-7.3775
X12.1262Y-4.7025
X12.7825Y-4.3775
X12.7825Y-5.1275
X12.7825Y-5.8775
X12.7825Y-6.6275
X12.7825Y-7.3775
T0
M30
