%TF.GenerationSoftware,KiCad,Pcbnew,(6.0.8-1)-1*%
%TF.CreationDate,2022-12-25T10:37:34-08:00*%
%TF.ProjectId,bowiten65-rp2040,626f7769-7465-46e3-9635-2d7270323034,rev?*%
%TF.SameCoordinates,Original*%
%TF.FileFunction,Paste,Bot*%
%TF.FilePolarity,Positive*%
%FSLAX46Y46*%
G04 Gerber Fmt 4.6, Leading zero omitted, Abs format (unit mm)*
G04 Created by KiCad (PCBNEW (6.0.8-1)-1) date 2022-12-25 10:37:34*
%MOMM*%
%LPD*%
G01*
G04 APERTURE LIST*
G04 Aperture macros list*
%AMRoundRect*
0 Rectangle with rounded corners*
0 $1 Rounding radius*
0 $2 $3 $4 $5 $6 $7 $8 $9 X,Y pos of 4 corners*
0 Add a 4 corners polygon primitive as box body*
4,1,4,$2,$3,$4,$5,$6,$7,$8,$9,$2,$3,0*
0 Add four circle primitives for the rounded corners*
1,1,$1+$1,$2,$3*
1,1,$1+$1,$4,$5*
1,1,$1+$1,$6,$7*
1,1,$1+$1,$8,$9*
0 Add four rect primitives between the rounded corners*
20,1,$1+$1,$2,$3,$4,$5,0*
20,1,$1+$1,$4,$5,$6,$7,0*
20,1,$1+$1,$6,$7,$8,$9,0*
20,1,$1+$1,$8,$9,$2,$3,0*%
G04 Aperture macros list end*
%ADD10R,1.200000X0.900000*%
%ADD11RoundRect,0.140000X0.140000X0.170000X-0.140000X0.170000X-0.140000X-0.170000X0.140000X-0.170000X0*%
%ADD12RoundRect,0.140000X-0.219203X-0.021213X-0.021213X-0.219203X0.219203X0.021213X0.021213X0.219203X0*%
%ADD13R,1.700000X1.000000*%
%ADD14RoundRect,0.150000X0.150000X-0.587500X0.150000X0.587500X-0.150000X0.587500X-0.150000X-0.587500X0*%
%ADD15RoundRect,0.140000X-0.170000X0.140000X-0.170000X-0.140000X0.170000X-0.140000X0.170000X0.140000X0*%
%ADD16RoundRect,0.135000X-0.135000X-0.185000X0.135000X-0.185000X0.135000X0.185000X-0.135000X0.185000X0*%
%ADD17RoundRect,0.150000X0.475000X0.150000X-0.475000X0.150000X-0.475000X-0.150000X0.475000X-0.150000X0*%
%ADD18RoundRect,0.200000X-0.275000X0.200000X-0.275000X-0.200000X0.275000X-0.200000X0.275000X0.200000X0*%
%ADD19RoundRect,0.140000X-0.140000X-0.170000X0.140000X-0.170000X0.140000X0.170000X-0.140000X0.170000X0*%
%ADD20RoundRect,0.140000X0.170000X-0.140000X0.170000X0.140000X-0.170000X0.140000X-0.170000X-0.140000X0*%
%ADD21RoundRect,0.250000X0.292217X0.292217X-0.292217X0.292217X-0.292217X-0.292217X0.292217X-0.292217X0*%
%ADD22RoundRect,0.050000X0.387500X0.050000X-0.387500X0.050000X-0.387500X-0.050000X0.387500X-0.050000X0*%
%ADD23RoundRect,0.050000X0.050000X0.387500X-0.050000X0.387500X-0.050000X-0.387500X0.050000X-0.387500X0*%
%ADD24RoundRect,0.140000X-0.021213X0.219203X-0.219203X0.021213X0.021213X-0.219203X0.219203X-0.021213X0*%
%ADD25R,1.400000X1.200000*%
%ADD26RoundRect,0.135000X0.185000X-0.135000X0.185000X0.135000X-0.185000X0.135000X-0.185000X-0.135000X0*%
%ADD27RoundRect,0.150000X-0.625000X0.150000X-0.625000X-0.150000X0.625000X-0.150000X0.625000X0.150000X0*%
%ADD28RoundRect,0.250000X-0.650000X0.350000X-0.650000X-0.350000X0.650000X-0.350000X0.650000X0.350000X0*%
%ADD29RoundRect,0.150000X0.565685X-0.353553X-0.353553X0.565685X-0.565685X0.353553X0.353553X-0.565685X0*%
%ADD30RoundRect,0.250000X0.625000X-0.375000X0.625000X0.375000X-0.625000X0.375000X-0.625000X-0.375000X0*%
G04 APERTURE END LIST*
D10*
%TO.C,D19*%
X113536952Y-133474952D03*
X113536952Y-130174952D03*
%TD*%
%TO.C,D29*%
X308799452Y-133474952D03*
X308799452Y-130174952D03*
%TD*%
%TO.C,D46*%
X311180702Y-152524952D03*
X311180702Y-149224952D03*
%TD*%
%TO.C,D61*%
X316706250Y-171574952D03*
X316706250Y-168274952D03*
%TD*%
D11*
%TO.C,C9*%
X122501600Y-177647600D03*
X121541600Y-177647600D03*
%TD*%
D10*
%TO.C,D1*%
X46861952Y-114424952D03*
X46861952Y-111124952D03*
%TD*%
D12*
%TO.C,C10*%
X143085178Y-172295178D03*
X143764000Y-172974000D03*
%TD*%
D10*
%TO.C,D7*%
X161161952Y-114424952D03*
X161161952Y-111124952D03*
%TD*%
%TO.C,D65*%
X75436952Y-190624952D03*
X75436952Y-187324952D03*
%TD*%
D13*
%TO.C,SW2*%
X117881000Y-190510000D03*
X124181000Y-190510000D03*
X117881000Y-194310000D03*
X124181000Y-194310000D03*
%TD*%
D10*
%TO.C,D9*%
X199261952Y-114424952D03*
X199261952Y-111124952D03*
%TD*%
%TO.C,D72*%
X263555702Y-190624952D03*
X263555702Y-187324952D03*
%TD*%
D14*
%TO.C,U4*%
X118200000Y-153986500D03*
X116300000Y-153986500D03*
X117250000Y-152111500D03*
%TD*%
D10*
%TO.C,D45*%
X273843750Y-152524952D03*
X273843750Y-149224952D03*
%TD*%
D15*
%TO.C,C8*%
X126619000Y-189512000D03*
X126619000Y-190472000D03*
%TD*%
D10*
%TO.C,D13*%
X275461952Y-114424952D03*
X275461952Y-111124952D03*
%TD*%
%TO.C,D55*%
X204024452Y-171574952D03*
X204024452Y-168274952D03*
%TD*%
%TO.C,D8*%
X180211952Y-114424952D03*
X180211952Y-111124952D03*
%TD*%
%TO.C,D35*%
X102393750Y-152524952D03*
X102393750Y-149224952D03*
%TD*%
D16*
%TO.C,R1*%
X121918000Y-188854000D03*
X122938000Y-188854000D03*
%TD*%
D12*
%TO.C,C16*%
X134686989Y-182845389D03*
X135365811Y-183524211D03*
%TD*%
D10*
%TO.C,D32*%
X54005702Y-152524952D03*
X54005702Y-149224952D03*
%TD*%
%TO.C,D5*%
X123061952Y-114424952D03*
X123061952Y-111124952D03*
%TD*%
%TO.C,D20*%
X132586952Y-133474952D03*
X132586952Y-130174952D03*
%TD*%
D17*
%TO.C,U3*%
X78645000Y-126812000D03*
X78645000Y-127762000D03*
X78645000Y-128712000D03*
X76295000Y-128712000D03*
X76295000Y-127762000D03*
X76295000Y-126812000D03*
%TD*%
D18*
%TO.C,R2*%
X128524000Y-168212000D03*
X128524000Y-169862000D03*
%TD*%
D10*
%TO.C,D37*%
X156399452Y-152524952D03*
X156399452Y-149224952D03*
%TD*%
%TO.C,D17*%
X59531250Y-133412500D03*
X59531250Y-130112500D03*
%TD*%
%TO.C,D14*%
X304036952Y-114424952D03*
X304036952Y-111124952D03*
%TD*%
%TO.C,D56*%
X223074452Y-171574952D03*
X223074452Y-168274952D03*
%TD*%
%TO.C,D58*%
X261174452Y-171574952D03*
X261174452Y-168274952D03*
%TD*%
D19*
%TO.C,C17*%
X116262000Y-155843000D03*
X117222000Y-155843000D03*
%TD*%
D10*
%TO.C,D2*%
X65911952Y-114424952D03*
X65911952Y-111124952D03*
%TD*%
%TO.C,D38*%
X175449452Y-152524952D03*
X175449452Y-149224952D03*
%TD*%
D20*
%TO.C,C6*%
X130429000Y-173962000D03*
X130429000Y-173002000D03*
%TD*%
D10*
%TO.C,D75*%
X316706250Y-190624952D03*
X316706250Y-187324952D03*
%TD*%
D20*
%TO.C,C14*%
X134747000Y-178661000D03*
X134747000Y-177701000D03*
%TD*%
D10*
%TO.C,D11*%
X237361952Y-114424952D03*
X237361952Y-111124952D03*
%TD*%
%TO.C,D23*%
X189736952Y-133474952D03*
X189736952Y-130174952D03*
%TD*%
%TO.C,D3*%
X84961952Y-114424952D03*
X84961952Y-111124952D03*
%TD*%
%TO.C,D63*%
X51624452Y-190624952D03*
X51624452Y-187324952D03*
%TD*%
%TO.C,D33*%
X80199452Y-152524952D03*
X80199452Y-149224952D03*
%TD*%
%TO.C,D16*%
X51624452Y-133474952D03*
X51624452Y-130174952D03*
%TD*%
%TO.C,D41*%
X232599452Y-152524952D03*
X232599452Y-149224952D03*
%TD*%
%TO.C,D67*%
X99249452Y-190624952D03*
X99249452Y-187324952D03*
%TD*%
%TO.C,D70*%
X239743202Y-190624952D03*
X239743202Y-187324952D03*
%TD*%
D20*
%TO.C,C4*%
X127381000Y-192885000D03*
X127381000Y-191925000D03*
%TD*%
D10*
%TO.C,D47*%
X316706250Y-152462500D03*
X316706250Y-149162500D03*
%TD*%
%TO.C,D59*%
X287368202Y-171574952D03*
X287368202Y-168274952D03*
%TD*%
D21*
%TO.C,U1*%
X129542500Y-180718500D03*
X129542500Y-181993500D03*
X128267500Y-180718500D03*
X128267500Y-181993500D03*
D22*
X132342500Y-178756000D03*
X132342500Y-179156000D03*
X132342500Y-179556000D03*
X132342500Y-179956000D03*
X132342500Y-180356000D03*
X132342500Y-180756000D03*
X132342500Y-181156000D03*
X132342500Y-181556000D03*
X132342500Y-181956000D03*
X132342500Y-182356000D03*
X132342500Y-182756000D03*
X132342500Y-183156000D03*
X132342500Y-183556000D03*
X132342500Y-183956000D03*
D23*
X131505000Y-184793500D03*
X131105000Y-184793500D03*
X130705000Y-184793500D03*
X130305000Y-184793500D03*
X129905000Y-184793500D03*
X129505000Y-184793500D03*
X129105000Y-184793500D03*
X128705000Y-184793500D03*
X128305000Y-184793500D03*
X127905000Y-184793500D03*
X127505000Y-184793500D03*
X127105000Y-184793500D03*
X126705000Y-184793500D03*
X126305000Y-184793500D03*
D22*
X125467500Y-183956000D03*
X125467500Y-183556000D03*
X125467500Y-183156000D03*
X125467500Y-182756000D03*
X125467500Y-182356000D03*
X125467500Y-181956000D03*
X125467500Y-181556000D03*
X125467500Y-181156000D03*
X125467500Y-180756000D03*
X125467500Y-180356000D03*
X125467500Y-179956000D03*
X125467500Y-179556000D03*
X125467500Y-179156000D03*
X125467500Y-178756000D03*
D23*
X126305000Y-177918500D03*
X126705000Y-177918500D03*
X127105000Y-177918500D03*
X127505000Y-177918500D03*
X127905000Y-177918500D03*
X128305000Y-177918500D03*
X128705000Y-177918500D03*
X129105000Y-177918500D03*
X129505000Y-177918500D03*
X129905000Y-177918500D03*
X130305000Y-177918500D03*
X130705000Y-177918500D03*
X131105000Y-177918500D03*
X131505000Y-177918500D03*
%TD*%
D11*
%TO.C,C7*%
X122501600Y-178714400D03*
X121541600Y-178714400D03*
%TD*%
D19*
%TO.C,C1*%
X116262000Y-157113000D03*
X117222000Y-157113000D03*
%TD*%
D10*
%TO.C,D4*%
X104011952Y-114424952D03*
X104011952Y-111124952D03*
%TD*%
%TO.C,D52*%
X146874452Y-171574952D03*
X146874452Y-168274952D03*
%TD*%
%TO.C,D74*%
X313561952Y-190624952D03*
X313561952Y-187324952D03*
%TD*%
%TO.C,D53*%
X165924452Y-171574952D03*
X165924452Y-168274952D03*
%TD*%
%TO.C,D25*%
X227836952Y-133474952D03*
X227836952Y-130174952D03*
%TD*%
%TO.C,D73*%
X294511952Y-190624952D03*
X294511952Y-187324952D03*
%TD*%
D24*
%TO.C,C11*%
X122005411Y-183175589D03*
X121326589Y-183854411D03*
%TD*%
D10*
%TO.C,D28*%
X284986952Y-133474952D03*
X284986952Y-130174952D03*
%TD*%
%TO.C,D22*%
X170686952Y-133474952D03*
X170686952Y-130174952D03*
%TD*%
%TO.C,D26*%
X246886952Y-133474952D03*
X246886952Y-130174952D03*
%TD*%
%TO.C,D6*%
X142111952Y-114424952D03*
X142111952Y-111124952D03*
%TD*%
%TO.C,D43*%
X270699452Y-152524952D03*
X270699452Y-149224952D03*
%TD*%
D13*
%TO.C,SW1*%
X144374000Y-194310000D03*
X138074000Y-194310000D03*
X144374000Y-190510000D03*
X138074000Y-190510000D03*
%TD*%
D10*
%TO.C,D15*%
X316706250Y-114362500D03*
X316706250Y-111062500D03*
%TD*%
%TO.C,D27*%
X265936952Y-133474952D03*
X265936952Y-130174952D03*
%TD*%
D15*
%TO.C,C12*%
X127762000Y-188877000D03*
X127762000Y-189837000D03*
%TD*%
D10*
%TO.C,D51*%
X111918750Y-171574952D03*
X111918750Y-168274952D03*
%TD*%
D20*
%TO.C,C13*%
X129286000Y-173962000D03*
X129286000Y-173002000D03*
%TD*%
D10*
%TO.C,D48*%
X66675000Y-171574952D03*
X66675000Y-168274952D03*
%TD*%
%TO.C,D60*%
X313561952Y-171574952D03*
X313561952Y-168274952D03*
%TD*%
D25*
%TO.C,Y1*%
X129184400Y-191340000D03*
X131384400Y-191340000D03*
X131384400Y-193040000D03*
X129184400Y-193040000D03*
%TD*%
D20*
%TO.C,C5*%
X125349000Y-175867000D03*
X125349000Y-174907000D03*
%TD*%
%TO.C,C2*%
X126619000Y-175867000D03*
X126619000Y-174907000D03*
%TD*%
D10*
%TO.C,D40*%
X213549452Y-152524952D03*
X213549452Y-149224952D03*
%TD*%
%TO.C,D18*%
X94486952Y-133474952D03*
X94486952Y-130174952D03*
%TD*%
%TO.C,D57*%
X242124452Y-171574952D03*
X242124452Y-168274952D03*
%TD*%
D26*
%TO.C,R4*%
X146253200Y-190502000D03*
X146253200Y-189482000D03*
%TD*%
D27*
%TO.C,J1*%
X92996000Y-119277000D03*
X92996000Y-120277000D03*
X92996000Y-121277000D03*
X92996000Y-122277000D03*
D28*
X96871000Y-123577000D03*
X96871000Y-117977000D03*
%TD*%
D10*
%TO.C,D42*%
X251649452Y-152524952D03*
X251649452Y-149224952D03*
%TD*%
D19*
%TO.C,C15*%
X117249000Y-150368000D03*
X118209000Y-150368000D03*
%TD*%
D10*
%TO.C,D24*%
X208786952Y-133474952D03*
X208786952Y-130174952D03*
%TD*%
%TO.C,D12*%
X256411952Y-114424952D03*
X256411952Y-111124952D03*
%TD*%
D29*
%TO.C,U2*%
X146682212Y-178405135D03*
X145784186Y-179303161D03*
X144886161Y-180201186D03*
X143988135Y-181099212D03*
X138896966Y-176008043D03*
X139794992Y-175110017D03*
X140693017Y-174211992D03*
X141591043Y-173313966D03*
%TD*%
D15*
%TO.C,C3*%
X133477000Y-192079200D03*
X133477000Y-193039200D03*
%TD*%
D18*
%TO.C,R3*%
X126873000Y-168212000D03*
X126873000Y-169862000D03*
%TD*%
D30*
%TO.C,F1*%
X74422000Y-135893000D03*
X74422000Y-133093000D03*
%TD*%
D10*
%TO.C,D39*%
X194499452Y-152524952D03*
X194499452Y-149224952D03*
%TD*%
%TO.C,D69*%
X180211952Y-190624952D03*
X180211952Y-187324952D03*
%TD*%
%TO.C,D49*%
X89724452Y-171574952D03*
X89724452Y-168274952D03*
%TD*%
%TO.C,D21*%
X151636952Y-133474952D03*
X151636952Y-130174952D03*
%TD*%
%TO.C,D10*%
X218311952Y-114424952D03*
X218311952Y-111124952D03*
%TD*%
%TO.C,D54*%
X184974452Y-171574952D03*
X184974452Y-168274952D03*
%TD*%
D26*
%TO.C,R5*%
X129082800Y-188722000D03*
X129082800Y-187702000D03*
%TD*%
D10*
%TO.C,D36*%
X137349452Y-152524952D03*
X137349452Y-149224952D03*
%TD*%
%TO.C,D30*%
X316706250Y-133412500D03*
X316706250Y-130112500D03*
%TD*%
%TO.C,D34*%
X99249452Y-152524952D03*
X99249452Y-149224952D03*
%TD*%
%TO.C,D50*%
X108774452Y-171574952D03*
X108774452Y-168274952D03*
%TD*%
M02*
