M48
; DRILL file {KiCad (6.0.8-1)-1} date Sunday, December 25, 2022 at 10:37:34 AM
; FORMAT={-:-/ absolute / inch / decimal}
; #@! TF.CreationDate,2022-12-25T10:37:34-08:00
; #@! TF.GenerationSoftware,Kicad,Pcbnew,(6.0.8-1)-1
; #@! TF.FileFunction,Plated,1,2,PTH
FMAT,2
INCH
; #@! TA.AperFunction,Plated,PTH,ViaDrill
T1C0.0118
; #@! TA.AperFunction,Plated,PTH,ComponentDrill
T2C0.0138
; #@! TA.AperFunction,Plated,PTH,ViaDrill
T3C0.0157
; #@! TA.AperFunction,Plated,PTH,ComponentDrill
T4C0.0394
; #@! TA.AperFunction,Plated,PTH,ComponentDrill
T5C0.0579
%
G90
G05
T1
X5.0313Y-7.0573
X5.0526Y-7.2227
T2
X5.0248Y-7.0898
X5.0248Y-7.14
X5.0248Y-7.1902
X5.075Y-7.0898
X5.075Y-7.14
X5.075Y-7.1902
X5.1252Y-7.0898
X5.1252Y-7.14
X5.1252Y-7.1902
T3
X1.27Y-4.535
X1.375Y-5.08
X1.42Y-5.57
X1.465Y-7.53
X1.535Y-6.595
X1.57Y-4.795
X1.755Y-6.215
X1.8512Y-6.9025
X1.96Y-4.195
X1.99Y-4.76
X2.11Y-5.465
X2.175Y-7.29
X2.315Y-5.685
X2.32Y-6.21
X2.375Y-7.625
X2.48Y-4.77
X2.535Y-5.255
X2.625Y-6.9375
X2.745Y-5.48
X2.775Y-4.615
X3.065Y-5.375
X3.065Y-6.895
X3.085Y-7.3
X3.11Y-6.26
X3.16Y-5.03
X3.2299Y-5.255
X3.37Y-7.655
X3.46Y-4.215
X3.55Y-5.64
X3.59Y-4.815
X3.775Y-5.33
X3.82Y-6.8087
X3.825Y-7.505
X3.865Y-6.225
X3.965Y-4.665
X4.145Y-4.755
X4.175Y-7.285
X4.2225Y-6.005
X4.43Y-6.2
X4.475Y-6.755
X4.655Y-5.87
X4.675Y-5.355
X4.678Y-6.527
X4.735Y-7.255
X4.745Y-4.715
X4.745Y-6.995
X4.76Y-7.435
X4.84Y-7.1912
X4.846Y-7.386
X4.9174Y-6.005
X4.955Y-4.185
X4.955Y-7.595
X4.985Y-6.845
X4.985Y-7.42
X5.015Y-4.795
X5.0829Y-6.9171
X5.09Y-5.48
X5.15Y-7.46
X5.175Y-6.81
X5.2161Y-7.3899
X5.24Y-6.755
X5.255Y-7.4827
X5.26Y-7.0
X5.345Y-6.21
X5.355Y-5.495
X5.355Y-7.035
X5.366Y-7.65
X5.37Y-7.238
X5.53Y-4.705
X5.605Y-7.095
X5.645Y-6.305
X5.665Y-5.495
X5.71Y-6.795
X5.73Y-6.98
X5.74Y-4.25
X5.806Y-7.438
X5.875Y-5.465
X5.88Y-4.775
X5.9Y-6.14
X5.94Y-7.02
X6.205Y-6.265
X6.23Y-6.935
X6.35Y-4.73
X6.41Y-5.54
X6.47Y-7.02
X6.485Y-4.14
X6.562Y-7.506
X6.675Y-5.49
X6.7Y-6.165
X6.88Y-7.535
X7.01Y-6.965
X7.08Y-6.26
X7.155Y-4.74
X7.19Y-5.49
X7.385Y-7.09
X7.525Y-5.49
X7.57Y-6.15
X7.57Y-7.495
X7.75Y-7.245
X7.775Y-6.26
X7.835Y-7.465
X7.89Y-4.755
X7.915Y-5.495
X7.93Y-4.11
X8.015Y-7.03
X8.155Y-5.49
X8.16Y-6.15
X8.335Y-4.665
X8.43Y-6.24
X8.465Y-7.445
X8.58Y-7.185
X8.665Y-4.76
X8.685Y-5.495
X8.71Y-4.265
X8.83Y-7.04
X8.855Y-7.5335
X8.995Y-5.49
X9.05Y-4.715
X9.14Y-6.32
X9.35Y-6.91
X9.36Y-6.12
X9.455Y-5.48
X9.495Y-4.67
X9.52Y-7.225
X9.545Y-4.165
X9.66Y-7.595
X9.815Y-5.42
X9.945Y-4.815
X10.025Y-6.175
X10.08Y-6.86
X10.16Y-5.495
X10.22Y-4.67
X10.41Y-7.59
X10.5Y-6.555
X10.585Y-5.485
X10.66Y-7.32
X10.685Y-4.68
X10.73Y-6.185
X11.08Y-6.89
X11.13Y-7.635
X11.215Y-4.345
X11.215Y-5.375
X11.38Y-5.03
X11.45Y-6.42
X11.59Y-7.615
X11.625Y-5.535
X11.665Y-7.105
X11.685Y-4.7
X11.795Y-6.235
X11.88Y-7.645
X12.025Y-5.39
X12.11Y-7.595
X12.175Y-7.02
X12.265Y-6.325
X12.325Y-5.6
X12.34Y-4.805
X12.405Y-7.665
X12.535Y-6.2
X12.54Y-6.985
X12.9Y-6.94
X13.005Y-7.65
X13.015Y-6.415
X13.03Y-6.04
X13.07Y-4.625
X13.08Y-5.395
T4
X4.044Y-7.0912
X4.044Y-7.1912
X4.044Y-7.2912
X4.044Y-7.3912
X4.044Y-7.4912
T5
X1.3825Y-4.2775
X1.4762Y-5.7775
X1.4762Y-7.2775
X1.57Y-5.0275
X1.57Y-7.2775
X1.6325Y-4.1775
X1.6637Y-5.7775
X1.7262Y-5.6775
X1.7262Y-7.1775
X1.82Y-4.9275
X1.82Y-7.1775
X1.8512Y-6.5275
X1.9137Y-5.6775
X2.1012Y-6.4275
X2.1325Y-4.2775
X2.3825Y-4.1775
X2.4137Y-7.2775
X2.5075Y-5.0275
X2.5075Y-7.2775
X2.6637Y-7.1775
X2.695Y-5.7775
X2.7575Y-4.9275
X2.7575Y-7.1775
X2.8825Y-4.2775
X2.945Y-5.6775
X3.07Y-6.5275
X3.1325Y-4.1775
X3.2575Y-5.0275
X3.32Y-6.4275
X3.3512Y-7.2775
X3.445Y-5.7775
X3.445Y-7.2775
X3.5075Y-4.9275
X3.6012Y-7.1775
X3.6325Y-4.2775
X3.695Y-5.6775
X3.695Y-7.1775
X3.82Y-6.5275
X3.8825Y-4.1775
X4.0075Y-5.0275
X4.07Y-6.4275
X4.195Y-5.7775
X4.2575Y-4.9275
X4.3825Y-4.2775
X4.445Y-5.6775
X4.57Y-6.5275
X4.6325Y-4.1775
X4.7575Y-5.0275
X4.82Y-6.4275
X4.945Y-5.7775
X5.0075Y-4.9275
X5.1325Y-4.2775
X5.195Y-5.6775
X5.32Y-6.5275
X5.3825Y-4.1775
X5.5075Y-5.0275
X5.57Y-6.4275
X5.695Y-5.7775
X5.7575Y-4.9275
X5.8825Y-4.2775
X5.945Y-5.6775
X6.07Y-6.5275
X6.1325Y-4.1775
X6.1637Y-7.2775
X6.2575Y-5.0275
X6.32Y-6.4275
X6.4137Y-7.1775
X6.445Y-5.7775
X6.5075Y-4.9275
X6.6325Y-4.2775
X6.6325Y-7.2775
X6.695Y-5.6775
X6.82Y-6.5275
X6.8825Y-4.1775
X6.8825Y-7.1775
X7.0075Y-5.0275
X7.07Y-6.4275
X7.195Y-5.7775
X7.2575Y-4.9275
X7.3825Y-4.2775
X7.445Y-5.6775
X7.57Y-6.5275
X7.6325Y-4.1775
X7.7575Y-5.0275
X7.82Y-6.4275
X7.945Y-5.7775
X8.0075Y-4.9275
X8.1325Y-4.2775
X8.195Y-5.6775
X8.32Y-6.5275
X8.3825Y-4.1775
X8.5075Y-5.0275
X8.57Y-6.4275
X8.695Y-5.7775
X8.7575Y-4.9275
X8.8825Y-4.2775
X8.945Y-5.6775
X8.9762Y-7.2775
X9.07Y-6.5275
X9.1325Y-4.1775
X9.2262Y-7.1775
X9.2575Y-5.0275
X9.32Y-6.4275
X9.445Y-5.7775
X9.5075Y-4.9275
X9.6325Y-4.2775
X9.695Y-5.6775
X9.82Y-6.5275
X9.82Y-7.2775
X9.8825Y-4.1775
X9.9137Y-7.2775
X10.0075Y-5.0275
X10.07Y-6.4275
X10.07Y-7.1775
X10.1637Y-7.1775
X10.195Y-5.7775
X10.2575Y-4.9275
X10.3825Y-4.2775
X10.445Y-5.6775
X10.6325Y-4.1775
X10.7575Y-5.0275
X10.8512Y-6.5275
X10.945Y-5.7775
X11.0075Y-4.9275
X11.1012Y-6.4275
X11.1325Y-7.2775
X11.195Y-5.6775
X11.3825Y-7.1775
X11.4137Y-5.7775
X11.5075Y-4.2775
X11.6637Y-5.6775
X11.695Y-5.0275
X11.7575Y-4.1775
X11.7887Y-5.7775
X11.8825Y-6.5275
X11.8825Y-7.2775
X11.945Y-4.9275
X12.0387Y-5.6775
X12.1325Y-6.4275
X12.1325Y-7.1775
X12.6325Y-4.2775
X12.6325Y-5.0275
X12.6325Y-5.7775
X12.6325Y-6.5275
X12.6325Y-7.2775
X12.8825Y-4.1775
X12.8825Y-4.9275
X12.8825Y-5.6775
X12.8825Y-6.4275
X12.8825Y-7.1775
T0
M30
